# xmcd
#
# Track frame offsets:
#	150
#	22896
#	50227
#	70664
#	92537
#	112132
#	129600
#	149851
#	167107
#	187684
#
# Disc length: 2904 seconds
#
# Revision: 0
# Processed by: cddbd v1.5.2PL0 Copyright (c) Steve Scherf et al.
# Submitted via: FairStars CD Ripper 1.90
#
DISCID=8e0b560a
DTITLE=Lee Roy Parnell - Midnight Believer
DYEAR=2017
DGENRE=Blues
TTITLE0=Hours In Between
TTITLE1=Midnight Believer
TTITLE2=Ponchartrain
TTITLE3=Too Far Gone
TTITLE4=Sunny Days
TTITLE5=Want Whatcha' Have
TTITLE6=Hair Of The Dog
TTITLE7=Going Uptown
TTITLE8=Tied Up And Tangled
TTITLE9=Some Time Ago
EXTD=
EXTT0=
EXTT1=
EXTT2=
EXTT3=
EXTT4=
EXTT5=
EXTT6=
EXTT7=
EXTT8=
EXTT9=
PLAYORDER=
